<svg width="256" height="256" viewBox="0 0 256 256" fill="none" xmlns="http://www.w3.org/2000/svg">
<mask id="mask0_1017_2" style="mask-type:alpha" maskUnits="userSpaceOnUse" x="0" y="0" width="256" height="256">
<path d="M220 0H36C16.1177 0 0 16.1177 0 36V220C0 239.882 16.1177 256 36 256H220C239.882 256 256 239.882 256 220V36C256 16.1177 239.882 0 220 0Z" fill="white"/>
</mask>
<g mask="url(#mask0_1017_2)">
<path d="M220 0H36C16.1177 0 0 16.1177 0 36V220C0 239.882 16.1177 256 36 256H220C239.882 256 256 239.882 256 220V36C256 16.1177 239.882 0 220 0Z" fill="url(#paint0_linear_1017_2)"/>
<path fill-rule="evenodd" clip-rule="evenodd" d="M169.75 55.5L259 77.5V257L73 208.5C77.1667 204.167 79.9167 202 81.25 202C82.5833 202 103.25 202 143.25 202L187.75 169.5L201.75 102.75L169.75 55.5Z" fill="black" fill-opacity="0.17"/>
</g>
<path d="M47.7184 208.384V203.981H53.8112C60.5696 203.981 65.4336 201.779 68.4032 197.427C70.144 194.867 71.0144 188.979 71.0144 179.763V75.0079C71.0144 64.8191 69.888 58.4703 67.6864 56.0127C64.5632 52.5311 59.9552 50.7391 53.8112 50.7391H47.7184V46.3359H113.664C137.882 46.3359 156.262 49.1007 168.858 54.5791C181.504 60.0575 191.693 69.2223 199.322 82.0735C207.053 94.8223 210.893 109.619 210.893 126.515C210.893 138.445 208.947 149.453 205.107 159.488C201.267 169.523 195.482 178.176 187.904 185.344C180.275 192.563 170.803 198.195 159.488 202.24C148.122 206.285 135.014 208.333 120.115 208.333H47.7184V208.384ZM93.952 196.659C103.885 198.912 112.384 199.987 119.398 199.987C128.563 199.987 137.062 198.298 144.896 194.918C152.73 191.539 159.539 186.726 165.274 180.48C171.008 174.234 175.514 166.656 178.79 157.696C182.067 148.787 183.706 138.752 183.706 127.693C183.706 116.531 182.067 106.496 178.842 97.5871C175.616 88.6783 171.11 81.1007 165.325 74.8031C159.539 68.5567 152.678 63.7439 144.64 60.4159C136.653 57.0879 127.898 55.3983 118.426 55.3983C114.842 55.3983 111.002 55.7055 106.957 56.3199C102.912 56.9343 98.56 57.7535 93.952 58.8799V196.659Z" fill="url(#paint1_linear_1017_2)"/>
<defs>
<linearGradient id="paint0_linear_1017_2" x1="128" y1="256" x2="128" y2="0" gradientUnits="userSpaceOnUse">
<stop stop-color="#3FC5FE"/>
<stop offset="0.671875" stop-color="#08E998"/>
</linearGradient>
<linearGradient id="paint1_linear_1017_2" x1="129.321" y1="208.384" x2="129.321" y2="46.3419" gradientUnits="userSpaceOnUse">
<stop stop-color="#83F6EF"/>
<stop offset="1" stop-color="white"/>
</linearGradient>
</defs>
</svg>
